<svg xmlns="http://www.w3.org/2000/svg" viewBox="0 0 360 240">
  <rect width="360" height="240" rx="24" fill="#141a29" />
  <rect x="0" y="0" width="360" height="26" fill="#1b2336" />
  <circle cx="20" cy="13" r="4" fill="#3a4562" />
  <circle cx="34" cy="13" r="4" fill="#3a4562" />
  <circle cx="48" cy="13" r="4" fill="#3a4562" />
  <rect x="70" y="7" width="200" height="12" rx="6" fill="#0f1420" />

  <rect x="28" y="46" width="130" height="90" rx="10" fill="#1b2336" />
  <circle cx="58" cy="80" r="13" fill="#ffb98a" opacity="0.85" />
  <path d="M32 122 L70 92 L96 112 L130 84 L154 122 Z" fill="#ff7a3d" opacity="0.85" />

  <rect x="172" y="50" width="160" height="14" rx="7" fill="#232b40" />
  <rect x="172" y="72" width="140" height="10" rx="5" fill="#1b2336" />
  <rect x="172" y="90" width="120" height="10" rx="5" fill="#1b2336" />
  <rect x="172" y="108" width="100" height="10" rx="5" fill="#1b2336" />
  <rect x="172" y="126" width="92" height="22" rx="11" fill="#ff7a3d" />

  <rect x="28" y="150" width="150" height="62" rx="12" fill="#1b2336" stroke="#232b40" stroke-width="2" />
  <circle cx="48" cy="172" r="10" fill="#ff7a3d" opacity="0.25" />
  <path d="M43 172 l4 4 l8 -9" stroke="#ffb98a" stroke-width="3" fill="none" stroke-linecap="round" stroke-linejoin="round" />
  <rect x="66" y="166" width="96" height="8" rx="4" fill="#232b40" />
  <rect x="66" y="180" width="70" height="8" rx="4" fill="#232b40" />

  <rect x="196" y="150" width="136" height="62" rx="12" fill="#1b2336" stroke="#232b40" stroke-width="2" />
  <circle cx="216" cy="172" r="10" fill="#ff7a3d" opacity="0.25" />
  <path d="M211 172 l4 4 l8 -9" stroke="#ffb98a" stroke-width="3" fill="none" stroke-linecap="round" stroke-linejoin="round" />
  <rect x="234" y="166" width="80" height="8" rx="4" fill="#232b40" />
  <rect x="234" y="180" width="60" height="8" rx="4" fill="#232b40" />

  <circle cx="326" cy="210" r="18" fill="#ff7a3d" />
  <text x="326" y="216" text-anchor="middle" font-family="Arial, Helvetica, sans-serif" font-weight="800" font-size="18" fill="#1a0e06">W</text>
</svg>
