<svg xmlns="http://www.w3.org/2000/svg" viewBox="0 0 360 240">
  <rect width="360" height="240" rx="24" fill="#0b0f1a" />

  <!-- browser window -->
  <rect x="14" y="14" width="332" height="212" rx="12" fill="#141a29" stroke="#232b40" stroke-width="1" />
  <rect x="14" y="14" width="332" height="24" fill="#1b2336" />
  <circle cx="30" cy="26" r="3.5" fill="#3a4562" />
  <circle cx="42" cy="26" r="3.5" fill="#3a4562" />
  <circle cx="54" cy="26" r="3.5" fill="#3a4562" />
  <rect x="80" y="20" width="180" height="12" rx="6" fill="#0f1420" />

  <!-- site navbar -->
  <circle cx="34" cy="54" r="6" fill="#ff7a3d" />
  <rect x="46" y="50" width="50" height="8" rx="4" fill="#eef1f7" opacity="0.9" />
  <rect x="170" y="51" width="30" height="6" rx="3" fill="#8d99b8" />
  <rect x="208" y="51" width="30" height="6" rx="3" fill="#8d99b8" />
  <rect x="246" y="51" width="30" height="6" rx="3" fill="#8d99b8" />
  <rect x="290" y="46" width="42" height="16" rx="8" fill="#ff7a3d" />
  <line x1="14" y1="68" x2="346" y2="68" stroke="#232b40" stroke-width="1" />

  <!-- hero copy -->
  <rect x="30" y="82" width="70" height="6" rx="3" fill="#ff7a3d" opacity="0.8" />
  <rect x="30" y="96" width="150" height="14" rx="4" fill="#eef1f7" />
  <rect x="30" y="116" width="110" height="14" rx="4" fill="#eef1f7" opacity="0.85" />
  <rect x="30" y="140" width="160" height="8" rx="4" fill="#8d99b8" opacity="0.7" />
  <rect x="30" y="154" width="130" height="8" rx="4" fill="#8d99b8" opacity="0.5" />

  <rect x="30" y="172" width="100" height="26" rx="13" fill="#ff7a3d" />
  <rect x="52" y="182" width="56" height="6" rx="3" fill="#1a0e06" opacity="0.8" />
  <rect x="140" y="172" width="90" height="26" rx="13" fill="none" stroke="#232b40" stroke-width="1.5" />

  <!-- hero image -->
  <circle cx="280" cy="140" r="70" fill="#ff7a3d" opacity="0.08" />
  <rect x="230" y="90" width="104" height="100" rx="14" fill="#1b2336" stroke="#232b40" stroke-width="1.5" />
  <circle cx="256" cy="118" r="11" fill="#ffb98a" opacity="0.9" />
  <path d="M234 168 L266 136 L286 156 L312 128 L330 168 Z" fill="#ff7a3d" opacity="0.85" />

  <!-- stat chips -->
  <rect x="30" y="204" width="90" height="20" rx="10" fill="#1b2336" stroke="#232b40" stroke-width="1" />
  <circle cx="42" cy="214" r="4" fill="#ff7a3d" />
  <rect x="52" y="210" width="58" height="8" rx="4" fill="#8d99b8" />

  <rect x="128" y="204" width="90" height="20" rx="10" fill="#1b2336" stroke="#232b40" stroke-width="1" />
  <circle cx="140" cy="214" r="4" fill="#ffb98a" />
  <rect x="150" y="210" width="58" height="8" rx="4" fill="#8d99b8" />

  <rect x="226" y="204" width="90" height="20" rx="10" fill="#1b2336" stroke="#232b40" stroke-width="1" />
  <circle cx="238" cy="214" r="4" fill="#ff7a3d" />
  <rect x="248" y="210" width="58" height="8" rx="4" fill="#8d99b8" />
</svg>
