<svg xmlns="http://www.w3.org/2000/svg" viewBox="0 0 360 240">
  <rect width="360" height="240" rx="24" fill="#141a29" />

  <rect x="32" y="56" width="150" height="110" rx="14" fill="#1b2336" stroke="#232b40" stroke-width="2" />
  <path d="M32 70 L107 118 L182 70" stroke="#ffb98a" stroke-width="4" fill="none" stroke-linecap="round" stroke-linejoin="round" />
  <circle cx="172" cy="66" r="12" fill="#ff7a3d" />
  <text x="172" y="70.5" text-anchor="middle" font-family="Arial, Helvetica, sans-serif" font-weight="800" font-size="12" fill="#1a0e06">3</text>

  <rect x="200" y="40" width="130" height="130" rx="14" fill="#1b2336" stroke="#232b40" stroke-width="2" />
  <path d="M200 54 a14 14 0 0 1 14 -14 h102 a14 14 0 0 1 14 14 v12 h-130 Z" fill="#ff7a3d" />
  <rect x="222" y="32" width="8" height="20" rx="4" fill="#ffb98a" />
  <rect x="290" y="32" width="8" height="20" rx="4" fill="#ffb98a" />

  <rect x="214" y="86" width="14" height="14" rx="3" fill="#232b40" />
  <rect x="236" y="86" width="14" height="14" rx="3" fill="#232b40" />
  <rect x="258" y="86" width="14" height="14" rx="3" fill="#ff7a3d" />
  <rect x="280" y="86" width="14" height="14" rx="3" fill="#232b40" />
  <rect x="302" y="86" width="14" height="14" rx="3" fill="#232b40" />

  <rect x="214" y="106" width="14" height="14" rx="3" fill="#232b40" />
  <rect x="236" y="106" width="14" height="14" rx="3" fill="#232b40" />
  <rect x="258" y="106" width="14" height="14" rx="3" fill="#232b40" />
  <rect x="280" y="106" width="14" height="14" rx="3" fill="#232b40" />
  <rect x="302" y="106" width="14" height="14" rx="3" fill="#232b40" />

  <rect x="214" y="126" width="14" height="14" rx="3" fill="#232b40" />
  <rect x="236" y="126" width="14" height="14" rx="3" fill="#232b40" />
  <rect x="258" y="126" width="14" height="14" rx="3" fill="#232b40" />
  <rect x="280" y="126" width="14" height="14" rx="3" fill="#232b40" />
  <rect x="302" y="126" width="14" height="14" rx="3" fill="#232b40" />

  <rect x="32" y="180" width="298" height="16" rx="8" fill="#1b2336" />
  <circle cx="46" cy="188" r="7" fill="#ff7a3d" />
  <path d="M43 188 l3 3 l6 -6" stroke="#1a0e06" stroke-width="2" fill="none" stroke-linecap="round" stroke-linejoin="round" />
  <rect x="62" y="184" width="180" height="8" rx="4" fill="#232b40" />

  <rect x="32" y="202" width="298" height="16" rx="8" fill="#1b2336" />
  <circle cx="46" cy="210" r="7" fill="#ffb98a" opacity="0.6" />
  <rect x="62" y="206" width="140" height="8" rx="4" fill="#232b40" />
</svg>
